<svg xmlns="http://www.w3.org/2000/svg" viewBox="0 0 96 96" fill="none" data-mobile-reference="game-controller">
  <path d="M24 38c4-7 9-10 17-8l7 2 7-2c8-2 13 1 17 8 5 9 8 21 7 29-.8 6-6 9-11 5l-10-9H38l-10 9c-5 4-10.2 1-11-5-1-8 2-20 7-29Z" fill="#5F56D9"/>
  <path d="M34 45v16M26 53h16" stroke="#FFFFFF" stroke-width="5" stroke-linecap="round"/>
  <circle cx="61" cy="50" r="4" fill="#FFFFFF"/>
  <circle cx="72" cy="58" r="4" fill="#FFFFFF"/>
  <path d="M42 30l-2-8M54 30l2-8" stroke="#5F56D9" stroke-width="5" stroke-linecap="round"/>
</svg>
